# xmcd
#
# Track frame offsets: 
#        150
#        18680
#        35060
#        57491
#        78940
#        105957
#        129751
#        156083
#        179177
#        196284
#
# Disc length: 2861 seconds
#
# Revision: 0
# Processed by: cddbd v1.5.2PL0 Copyright (c) Steve Scherf et al.
# Submitted via: ExactAudioCopyFreeDBPlugin 1.0
#
DISCID=810b2b0a
DTITLE=Phuong Thanh - Quay ve ngay xua
DYEAR=1900
DGENRE=
TTITLE0=Yeu them lan nua
TTITLE1=Vi sao
TTITLE2=Hy vong
TTITLE3=Co nhung khi mot minh
TTITLE4=Sao anh ko ve ben em
TTITLE5=Minh da xa nhau
TTITLE6=Noi dau mot minh
TTITLE7=Ngoi nha hoang
TTITLE8=Anh hay quay ve cung em
TTITLE9=Danh roi ben ho
EXTD=
EXTT0=
EXTT1=
EXTT2=
EXTT3=
EXTT4=
EXTT5=
EXTT6=
EXTT7=
EXTT8=
EXTT9=
PLAYORDER=
